<svg xmlns="http://www.w3.org/2000/svg" xmlns:xlink="http://www.w3.org/1999/xlink" version="1.1" id="Layer_1" x="0px" y="0px" width="64px" height="64px" viewBox="0 0 64 64" style="enable-background:new 0 0 64 64;" xml:space="preserve">

<g>
	<g>
		<defs>
			<path id="57930906_SVGID_1_" d="M58,8.5c0,0,0,28.579,0,31.063c0,2.482-6.717,4.496-15,4.496s-15-2.014-15-4.496C28,37.079,28,8.5,28,8.5     H58z"></path>
		</defs>
		<use xlink:href="#57930906_SVGID_1_" class="stshockcolor" style="fill:#93C1CF;;overflow:visible;" data-st="fill:#93C1CF;;overflow:visible;"></use>
		<clipPath id="57930906_SVGID_2_">
			<use xlink:href="#57930906_SVGID_1_" style="overflow:visible;"></use>
		</clipPath>
		<g class="st2" style="clip-path:url(#57930906_SVGID_2_);;">
			<path class="st5" d="M58,47.436V18.5c0,2.482-6.717,4.496-15,4.496S28,20.982,28,18.5v28.936H58z" style="fill:#231F20;fill-opacity:0.15;;"></path>
			<path class="st5" d="M58,48.44V29.504C58,31.986,51.283,34,43,34s-15-2.014-15-4.496V48.44H58z" style="fill:#231F20;fill-opacity:0.15;;"></path>
			<rect x="28" y="4" class="st5" width="30" height="40" style="fill:#231F20;fill-opacity:0.15;;"></rect>
		</g>
	</g>
	<g>
		<ellipse class="stshockcolor" cx="43" cy="8.5" rx="15" ry="4.5" style="fill:#93C1CF;;" data-st="fill:#93C1CF;;overflow:visible;"></ellipse>
		<ellipse class="st0" cx="43" cy="8.5" rx="15" ry="4.5" style="opacity:0.3;fill:#FFFFFF;;"></ellipse>
	</g>
</g>
<g>
	<g>
		<defs>
			<path id="57930906_SVGID_3_" d="M40,22c0,0,0,30.238,0,33s-7.164,5-16,5c-8.836,0-16-2.238-16-5s0-33,0-33H40z"></path>
		</defs>
		<use xlink:href="#57930906_SVGID_3_" class="stshockcolor" style="fill:#93C1CF;;overflow:visible;" data-st="fill:#93C1CF;;overflow:visible;"></use>
		<clipPath id="57930906_SVGID_4_">
			<use xlink:href="#57930906_SVGID_3_" style="overflow:visible;"></use>
		</clipPath>
		<g class="st3" style="clip-path:url(#57930906_SVGID_4_);;">
			<path class="st5" d="M40,61c0,0,0-30.762,0-28s-7.164,5-16,5c-8.836,0-16-2.238-16-5s0,28,0,28H40z" style="fill:#231F20;fill-opacity:0.15;;"></path>
			<path class="st5" d="M40,60c0,0,0-18.762,0-16s-7.164,5-16,5c-8.836,0-16-2.238-16-5s0,16,0,16H40z" style="fill:#231F20;fill-opacity:0.15;;"></path>
		</g>
	</g>
	<g>
		<ellipse class="stshockcolor" cx="24" cy="22" rx="16" ry="5" style="fill:#93C1CF;;" data-st="fill:#93C1CF;;overflow:visible;"></ellipse>
		<ellipse class="st1" cx="24" cy="22" rx="16" ry="5" style="opacity:0.5;fill:#FFFFFF;;"></ellipse>
	</g>
</g>
</svg>