<svg xmlns="http://www.w3.org/2000/svg" xmlns:xlink="http://www.w3.org/1999/xlink" version="1.1" id="Layer_1" x="0px" y="0px" width="64px" height="64px" viewBox="0 0 64 64" style="enable-background:new 0 0 64 64;" xml:space="preserve">

<path class="st4" d="M35,42h-8v12c0,2.36-1.07,3.944-2,5h12c-0.937-1.057-2-2.64-2-5V42z" style="fill:#93684E;;"></path>
<g>
	<defs>
		<path id="571069739_SVGID_1_" d="M56.207,30.566c-1.31-0.753-4.141-2.388-6.881-3.972C49.755,25.65,50,24.604,50,23.5    c0-4.14-3.358-7.5-7.499-7.5c-1.075,0-2.096,0.23-3.021,0.638l-2.037-3.529c-3.377-5.847-10.856-7.85-16.702-4.474    c-3.875,2.237-6.048,6.277-6.101,10.449c-1.417,0.176-2.823,0.632-4.137,1.391c-5.263,3.038-7.064,9.765-4.029,15.023    c3.041,5.262,9.766,7.064,15.026,4.026c1.213-0.7,2.233-1.604,3.062-2.633c0.089,1.415,0.858,2.76,2.179,3.522    C27.433,40.813,28.189,41,28.935,41H53.41c1.931,0,3.807-1.005,4.838-2.795C59.796,35.529,58.874,32.111,56.207,30.566z"></path>
	</defs>
	<clipPath id="571069739_SVGID_2_">
		<use xlink:href="#571069739_SVGID_1_" style="overflow:visible;"></use>
	</clipPath>
	<g class="st2" style="clip-path:url(#571069739_SVGID_2_);;">
		<rect x="5" y="7" class="stshockcolor" width="54" height="37" style="fill:#80B34F;;" data-st="fill:#80B34F;;"></rect>
		<path class="st6" d="M13.543,42.337c4.446-2.566,5.969-8.249,3.401-12.697c-2.566-4.447-8.252-5.968-12.694-3.403    c-4.447,2.568-5.97,8.253-3.405,12.696C3.415,43.38,9.098,44.904,13.543,42.337z" style="opacity:0.3;fill:#231F20;;"></path>
		<g>
			<path class="st5" d="M56.207,30.566c1.674,0.967,2.247,3.107,1.281,4.781c-0.967,1.674-3.107,2.248-4.781,1.281     c-0.756-0.437-9.13-5.271-9.13-5.271l-10.623-6.132l-0.001,0.001c0,0-1.466-2.538-3.172-5.495     c-3.658-6.333-11.759-8.503-18.091-4.846c0,0,3.685-9.649,15.31-9.649C55,5.237,54.533,29.601,56.207,30.566z" style="opacity:0.1;fill:#F7D11A;;"></path>
			<path class="st1" d="M56.207,30.566c1.674,0.967,2.247,3.107,1.281,4.781c-0.967,1.674-3.107,2.248-4.781,1.281     c-0.756-0.437-9.13-5.271-9.13-5.271l-10.623-6.132l-0.001,0.001c0,0-1.466-2.538-3.172-5.495     c-3.658-6.333-11.759-8.503-18.091-4.846c0,0,3.685-9.649,15.31-9.649C55,5.237,54.533,29.601,56.207,30.566z" style="opacity:0.15;fill:#FFFFFF;;"></path>
		</g>
	</g>
</g>
<rect x="27.969" y="33.789" transform="matrix(0.5 -0.866 0.866 0.5 -13.1053 48.7948)" class="st4" width="15.472" height="3.917" style="fill:#93684E;;"></rect>
<g>
	<defs>
		<path id="571069739_SVGID_3_" d="M40.25,37.469c1.665,0.966,2.244,3.104,1.272,4.777C40.881,43.369,39.707,44,38.5,44    c-1.928,0-15.384-0.001-17.98,0.001c-1.277,0.001-2.572-0.324-3.759-1.009c-4.263-2.463-3.177-7.725-0.985-11.527    c1.128-1.955,2.951-4.386,4.304-5.167c4.1-2.369,9.348-0.967,11.716,3.137c1.137,1.973,2.609,4.649,2.609,4.649    S38.576,36.501,40.25,37.469z"></path>
	</defs>
	<use xlink:href="#571069739_SVGID_3_" class="stshockcolor" style="fill:#80B34F;;overflow:visible;" data-st="fill:#80B34F;;"></use>
	<clipPath id="571069739_SVGID_4_">
		<use xlink:href="#571069739_SVGID_3_" style="overflow:visible;"></use>
	</clipPath>
	<g class="st3" style="clip-path:url(#571069739_SVGID_4_);;">
		<g>
			<path class="st5" d="M40.274,37.429c1.674,0.967,2.247,3.107,1.281,4.781c-0.967,1.674-3.107,2.247-4.781,1.281     c-0.809-0.467-9.251-5.341-9.251-5.341S25.69,34.976,25,33.78c-2.308-4.001-7.424-5.367-11.42-3.059     c0,0,0.858-8.409,11.295-8.409S38.601,36.463,40.274,37.429z" style="opacity:0.1;fill:#F7D11A;;"></path>
			<path class="st1" d="M40.274,37.429c1.674,0.967,2.247,3.107,1.281,4.781c-0.967,1.674-3.107,2.247-4.781,1.281     c-0.809-0.467-9.251-5.341-9.251-5.341S25.69,34.976,25,33.78c-2.308-4.001-7.424-5.367-11.42-3.059     c0,0,0.858-8.409,11.295-8.409S38.601,36.463,40.274,37.429z" style="opacity:0.15;fill:#FFFFFF;;"></path>
		</g>
	</g>
</g>
</svg>