<svg xmlns="http://www.w3.org/2000/svg" xmlns:xlink="http://www.w3.org/1999/xlink" version="1.1" id="Layer_1" x="0px" y="0px" width="64px" height="64px" viewBox="0 0 64 64" style="enable-background:new 0 0 64 64;" xml:space="preserve">

<g>
	<rect x="32" y="10" class="stshockcolor" width="6" height="11" style="fill:#D4D5D1;;" data-st="fill:#D4D5D1;;"></rect>
	<rect x="32" y="10" class="st5" width="6" height="11" style="opacity:0.2;;"></rect>
</g>
<path class="stshockcolor" d="M46.9,16c2.719,0,5.1-1.667,5.1-5s-2.381-5-5.1-5C44,6,35,8.755,35,8.755S26,6,23.1,6C20.38,6,18,7.667,18,11  s2.38,5,5.1,5C26,16,35,13.245,35,13.245S43.801,16,46.9,16z" style="fill:#D4D5D1;;" data-st="fill:#D4D5D1;;"></path>
<g>
	<defs>
		<path id="57870636_SVGID_1__grid" d="M43,18c0,0,2.767,6,6,6c3.163,0,8,0,11,0v13c0,0-7.764,0-11,0c-3.233,0-5.912,6-14,6s-10.765-6-14-6    c-0.833,0-0.875,0-2,0s-2,1-2,2s0,4,0,4H4v-5c0-9,5.912-14,14-14c2,0,2.28,0,3,0c3.235,0,6-6,6-6H43z"></path>
	</defs>
	<use xlink:href="#57870636_SVGID_1__grid" class="stshockcolor" style="fill:#D4D5D1;;overflow:visible;" data-st="fill:#D4D5D1;;"></use>
	<clipPath id="57870636_SVGID_2__grid">
		<use xlink:href="#57870636_SVGID_1__grid" style="overflow:visible;"></use>
	</clipPath>
	<g class="st2" style="clip-path:url(#57870636_SVGID_2__grid);;">
		<polygon class="st1" points="43,18 60,18 60,43 28.567,43   " style="opacity:0.15;;"></polygon>
	</g>
</g>
<g>
	<defs>
		<path id="57870636_SVGID_3__grid" d="M18,55.002C18,58.868,14.865,62,11,62c-3.866,0-7-3.132-7-6.998c0-3.864,1.595-5.643,7-15.001    C16.435,49.412,18,51.138,18,55.002z"></path>
	</defs>
	<use xlink:href="#57870636_SVGID_3__grid" style="overflow:visible;fill:#92B4E1;"></use>
	<clipPath id="57870636_SVGID_4__grid">
		<use xlink:href="#57870636_SVGID_3__grid" style="overflow:visible;"></use>
	</clipPath>
	<g class="st3" style="clip-path:url(#57870636_SVGID_4__grid);;">
		<path class="st4" d="M21.21,60.563c0,3.864-3.134,6.998-7,6.998c-3.866,0-7-3.134-7-6.998c0-3.866,1.596-5.644,7-15.002    C19.646,54.972,21.21,56.697,21.21,60.563z" style="opacity:0.1;;"></path>
		<path class="st0" d="M13.156,52.544c0,1.745-1.414,3.158-3.158,3.158c-1.745,0-3.16-1.413-3.16-3.158    c0-1.744,0.72-2.546,3.16-6.77C12.451,50.021,13.156,50.8,13.156,52.544z" style="opacity:0.3;fill:#FFFFFF;;"></path>
	</g>
</g>
</svg>