<svg xmlns="http://www.w3.org/2000/svg" xmlns:xlink="http://www.w3.org/1999/xlink" version="1.1" id="Layer_1" x="0px" y="0px" width="64px" height="64px" viewBox="0 0 64 64" style="enable-background:new 0 0 64 64;" xml:space="preserve">

<g>
	<defs>
		<path id="573570841_SVGID_1_" d="M32,62c-1.536,0-3.071-0.586-4.243-1.758l-24-24C2.632,35.117,2,33.591,2,32    c0-1.591,0.632-3.118,1.757-4.243l24-24C28.929,2.586,30.464,2,32,2c1.535,0,3.071,0.586,4.242,1.757l24,24    C61.368,28.882,62,30.409,62,32c0,1.591-0.632,3.117-1.758,4.242l-24,24C35.071,61.414,33.535,62,32,62z"></path>
	</defs>
	<use xlink:href="#573570841_SVGID_1_" class="stshockcolor" style="fill:#F7C90B;;overflow:visible;" data-st="fill:#F7C90B;;overflow:visible;"></use>
	<clipPath id="573570841_SVGID_2_">
		<use xlink:href="#573570841_SVGID_1_" style="overflow:visible;"></use>
	</clipPath>
	<polygon class="st3" points="2,62 14.681,62 49.324,2 2,2  " style="opacity:0.3;clip-path:url(#573570841_SVGID_2_);fill:#FFFFFF;;"></polygon>
	<g class="st2" style="opacity:0.6;clip-path:url(#573570841_SVGID_2_);;">
		<path class="st1" d="M41,23c-1.107-4.133-1.975-6-4-6H27c-2.025,0-2.893,1.868-4,6l0,0H41L41,23z" style="opacity:0.7;fill:#47475E;;"></path>
		<path class="st0" d="M42,40.4c-1.754-1.013-4-1.908-4-2.838c0-0.865,1.412-1.646,3-2.563v-3l2-1.155c0-5.266-1.033-6.171-2-7.845    H23c-0.967,1.674-2,2.581-2,7.845L23,32v3c-1.609,0.929-3,1.831-3,3c0,1.431,1.534,2.342,3.373,3.403    C26.55,43.238,27,43.708,27,45.004c0,1.044-1.784,2.775-3.596,4.588C21.593,51.403,10.75,62,10.75,62H17l12-12    c2.132-2.132,3-3.542,3-4.838c0-1.745-1.5-2.74-5-4.762c-1.754-1.013-4-1.908-4-2.838c0-0.865,1.412-1.646,3-2.563v-3h12v3    c-1.609,0.929-3,1.831-3,3c0,1.431,1.534,2.342,3.373,3.403C41.55,43.238,44,44.708,44,46.004c0,1.044-0.784,1.775-2.596,3.588    C39.593,51.403,28.75,62,28.75,62H37l10.401-12.917C48.273,48.211,49,47.031,49,45.813C49,43.5,45.5,42.422,42,40.4z" style="fill:#47475E;;"></path>
	</g>
</g>
</svg>