<svg xmlns="http://www.w3.org/2000/svg" xmlns:xlink="http://www.w3.org/1999/xlink" version="1.1" id="Layer_1" x="0px" y="0px" width="64px" height="64px" viewBox="0 0 64 64" style="enable-background:new 0 0 64 64;" xml:space="preserve">

<g>
	<path class="stshockcolor" d="M45.426,11.285C44.799,10.192,43.784,10,42.382,10H26.99l2.31,4l-7.239,12.538l2.805,3.084L33.885,14h8.414   L55,36l3.465-2L45.426,11.285z" style="fill:#80B34F;;" data-st="fill:#80B34F;;"></path>
	<path class="st1" d="M45.426,11.285C44.799,10.192,43.784,10,42.382,10H26.99l2.31,4l-7.239,12.538l2.805,3.084L33.885,14h8.414   L55,36l3.465-2L45.426,11.285z" style="opacity:0.15;fill:#F7D11A;;"></path>
	<path class="st0" d="M45.426,11.285C44.799,10.192,43.784,10,42.382,10H26.99l2.31,4l-7.239,12.538l2.805,3.084L33.885,14h8.414   L55,36l3.465-2L45.426,11.285z" style="opacity:0.3;fill:#FFFFFF;;"></path>
</g>
<g>
	<defs>
		<path id="573570894_SVGID_1_" d="M58.105,26.21C55.73,24.806,52.961,24,50,24c-6.713,0-12.451,4.139-14.826,10H31.32    c-1.779,0-3.209-1.502-3.209-3.833c0-3.833,0-6.167,0-6.167C20.72,24,8.028,24,7,24c-1.862,0-3,1.323-3,3c0,1.128,0,14,0,15    c0,1.31,0.972,2,2,2c0.864,0,48,0,48,0l-4-4L58.105,26.21z"></path>
	</defs>
	<use xlink:href="#573570894_SVGID_1_" class="stshockcolor" style="fill:#80B34F;;overflow:visible;" data-st="fill:#80B34F;;"></use>
	<clipPath id="573570894_SVGID_2_">
		<use xlink:href="#573570894_SVGID_1_" style="overflow:visible;"></use>
	</clipPath>
	<g class="st3" style="clip-path:url(#573570894_SVGID_2_);;">
		<rect x="4" y="24" class="st7" width="6" height="20" style="opacity:0.5;fill:#DEDCD9;;"></rect>
		<circle class="st0" cx="50" cy="40" r="16" style="opacity:0.3;fill:#FFFFFF;;"></circle>
	</g>
</g>
<g>
	<defs>
		<path id="573570894_SVGID_3_" d="M12,52c-4.417,0-8-3.581-8-8s3.583-8,8-8s8,3.581,8,8S16.417,52,12,52z M62,40c0-6.63-5.37-12-12-12    s-12,5.37-12,12s5.37,12,12,12S62,46.63,62,40z"></path>
	</defs>
	<use xlink:href="#573570894_SVGID_3_" style="overflow:visible;fill:#77726D;"></use>
	<clipPath id="573570894_SVGID_4_">
		<use xlink:href="#573570894_SVGID_3_" style="overflow:visible;"></use>
	</clipPath>
	<g class="st4" style="clip-path:url(#573570894_SVGID_4_);;">
		<polygon class="st6" points="4,36 4,52 7.381,52 16.619,36   " style="opacity:0.2;fill:#FFFFFF;;"></polygon>
		<polygon class="st6" points="38,28 38,52 43.072,52 56.929,28   " style="opacity:0.2;fill:#FFFFFF;;"></polygon>
		<path class="st8" d="M12,48c-2.206,0-4-1.795-4-4s1.794-4,4-4s4,1.795,4,4S14.206,48,12,48z M56,40c0-3.307-2.693-6-6-6    s-6,2.693-6,6s2.693,6,6,6S56,43.307,56,40z" style="fill:#D4D5D1;;"></path>
	</g>
</g>
<g>
	<defs>
		<path id="573570894_SVGID_5_" d="M20,7c-2.068,0-3,1.64-3,3c0,1.64,0,7,0,7h-3v7h6V7z"></path>
	</defs>
	<use xlink:href="#573570894_SVGID_5_" style="overflow:visible;fill:#D4D5D1;"></use>
	<clipPath id="573570894_SVGID_6_">
		<use xlink:href="#573570894_SVGID_5_" style="overflow:visible;"></use>
	</clipPath>
	<g class="st5" style="clip-path:url(#573570894_SVGID_6_);;">
		<rect x="14" y="17" class="st6" width="6" height="7" style="opacity:0.2;fill:#FFFFFF;;"></rect>
	</g>
</g>
</svg>