<svg xmlns="http://www.w3.org/2000/svg" xmlns:xlink="http://www.w3.org/1999/xlink" version="1.1" id="575339257_Layer_1_grid" x="0px" y="0px" width="64px" height="64px" viewBox="0 0 64 64" style="enable-background:new 0 0 64 64;" xml:space="preserve">

<g>
	<defs>
		<path id="575339257_SVGID_1__grid" d="M59,51H5V27c0-1.657,1.344-3,3-3h48c1.657,0,3,1.343,3,3V51z"></path>
	</defs>
	<use xlink:href="#575339257_SVGID_1__grid" class="stshockcolor" style="fill:#93C1CF;;overflow:visible;" data-st="fill:#93C1CF;;overflow:visible;"></use>
	<clipPath id="575339257_SVGID_2__grid">
		<use xlink:href="#575339257_SVGID_1__grid" style="overflow:visible;"></use>
	</clipPath>
	<polygon class="st0" points="59,24 47,24 59,45  " style="clip-path:url(#575339257_SVGID_2__grid);fill:#FFFFFF;fill-opacity:0.2;;"></polygon>
	<g class="st3" style="clip-path:url(#575339257_SVGID_2__grid);;">
		<g class="st1" style="opacity:0.15;;">
			<path class="st5" d="M53,38h-6v7h6V38z M53,28h-6v7h6V28z M17,38h-6v7h6V38z M17,28h-6v7h6V28z" style="fill:#C3E3EC;;"></path>
		</g>
		<g class="st6" style="opacity:0.3;;">
			<path class="st7" d="M53,38h-6v7h6V38z M53,28h-6v7h6V28z M17,38h-6v7h6V38z M17,28h-6v7h6V28z" style="fill:#FFFFFF;;"></path>
		</g>
	</g>
</g>
<g>
	<defs>
		<path id="575339257_SVGID_3__grid" d="M44,14h-9V7c0-1.657-1.343-3-3-3H20c-1.657,0-3,1.343-3,3v54h30V17C47,15.343,45.657,14,44,14z"></path>
	</defs>
	<clipPath id="575339257_SVGID_4__grid">
		<use xlink:href="#575339257_SVGID_3__grid" style="overflow:visible;"></use>
	</clipPath>
	<g class="st4" style="clip-path:url(#575339257_SVGID_4__grid);;">
		<rect x="17" y="4" class="st8" width="30" height="57" style="fill:#A6A69F;;"></rect>
		<path class="st9" d="M29,45h-6v-7h6V45z M29,48h-6v7h6V48z M29,28h-6v7h6V28z M29,18h-6v7h6V18z M29,8h-6v7h6V8z M41,38h-6v7h6V38    z M41,48h-6v7h6V48z M41,28h-6v7h6V28z M41,18h-6v7h6V18z" style="fill:#DEDCD9;;"></path>
		<polygon class="st2" points="17,4 47,4 47.009,76.286 17,24   " style="fill:#FFFFFF;fill-opacity:0.3;;"></polygon>
	</g>
</g>
</svg>