<?xml version="1.0" encoding="UTF-8" standalone="no"?>
<!-- Created with Inkscape (http://www.inkscape.org/) -->

<svg
   xmlns:dc="http://purl.org/dc/elements/1.1/"
   xmlns:cc="http://creativecommons.org/ns#"
   xmlns:rdf="http://www.w3.org/1999/02/22-rdf-syntax-ns#"
   xmlns:svg="http://www.w3.org/2000/svg"
   xmlns="http://www.w3.org/2000/svg"
   xmlns:sodipodi="http://sodipodi.sourceforge.net/DTD/sodipodi-0.dtd"
   xmlns:inkscape="http://www.inkscape.org/namespaces/inkscape"
   width="210mm"
   height="297mm"
   viewBox="0 0 210 297"
   version="1.1"
   id="svg8"
   inkscape:version="0.92.3 (2405546, 2018-03-11)"
   sodipodi:docname="tractor2.svg">
  <defs
     id="defs2" />
  <sodipodi:namedview
     id="base"
     pagecolor="#ffffff"
     bordercolor="#666666"
     borderopacity="1.0"
     inkscape:pageopacity="0.0"
     inkscape:pageshadow="2"
     inkscape:zoom="0.24748737"
     inkscape:cx="1268.5709"
     inkscape:cy="1458.127"
     inkscape:document-units="mm"
     inkscape:current-layer="g3739"
     showgrid="false"
     inkscape:window-width="1920"
     inkscape:window-height="1017"
     inkscape:window-x="-8"
     inkscape:window-y="-8"
     inkscape:window-maximized="1" />
  <metadata
     id="metadata5">
    <rdf:RDF>
      <cc:Work
         rdf:about="">
        <dc:format>image/svg+xml</dc:format>
        <dc:type
           rdf:resource="http://purl.org/dc/dcmitype/StillImage" />
        <dc:title></dc:title>
      </cc:Work>
    </rdf:RDF>
  </metadata>
  <g
     inkscape:label="Capa 1"
     inkscape:groupmode="layer"
     id="layer1">
    <g
       id="g3739"
       class="fa-group"
       transform="matrix(0.26458333,0,0,0.26458333,-120.00744,151.40358)">
      <path
         id="path3735"
         class="fa-secondary"
         d="m 1061.3606,133.96949 a 88,88 0 1 0 88,88 88,88 0 0 0 -88,-88 z m 0,112 a 24,24 0 1 1 24,-24 24,24 0 0 1 -24,24 z M 863.36055,89.969489 h -7.14 a 152.15,152.15 0 0 0 -11.86,-28.72 l 5.06,-5.06 a 22,22 0 0 0 0,-31.11 l -31.16,-31.1100004 a 22,22 0 0 0 -31.11,0 l -5.06,5.06 a 152.15,152.15 0 0 0 -28.73,-11.9099996 v -7.15 a 22,22 0 0 0 -22,-22 h -44 a 22,22 0 0 0 -22,22 v 7.14 a 152.43,152.43 0 0 0 -28.73,11.9099996 l -5,-5.05 a 22,22 0 0 0 -31.11,0 l -31.16,31.1000004 a 22,22 0 0 0 0,31.11 l 5.06,5.06 a 152.15,152.15 0 0 0 -11.91,28.73 h -7.15 a 22,22 0 0 0 -22,22.000001 v 44 a 22,22 0 0 0 22,22 h 7.14 a 152.43,152.43 0 0 0 11.91,28.73 l -5,5 a 22,22 0 0 0 0,31.11 l 31.05,31.16 a 22,22 0 0 0 31.11,0 l 5.06,-5.06 a 152.15,152.15 0 0 0 28.73,11.91 v 7.15 a 22,22 0 0 0 22,22 h 44 a 22,22 0 0 0 22,-22 v -7.14 a 152.15,152.15 0 0 0 28.72,-11.86 l 5.06,5.06 a 22,22 0 0 0 31.11,0 l 31.11,-31.16 a 22,22 0 0 0 0,-31.11 l -5.06,-5.06 a 152.15,152.15 0 0 0 11.91,-28.73 h 7.15 a 22,22 0 0 0 22,-22 v -44 a 22,22 0 0 0 -22,-22.000001 z m -154,124.000001 a 80,80 0 1 1 80,-80 80,80 0 0 1 -80,80 z"
         inkscape:connector-curvature="0"
         style="fill:#000000" />
      <path
         id="path3737"
         class="fa-primary"
         d="m 1173.3606,-10.030511 v 50.76 a 32,32 0 0 1 -9.37,22.63 l -50.82,50.810001 a 118.61,118.61 0 0 0 -51.81,-12.2 c -39.14,0 -73.55005,19 -95.46005,48 h -80.54 v -38 a 22,22 0 0 0 -22,-22.000001 h -7.14 a 152.24,152.24 0 0 0 -11.86,-28.73 l 5.06,-5.06 a 22,22 0 0 0 0,-31.11 l -31.16,-31.1000004 a 22,22 0 0 0 -31.11,0 l -5.06,5.06 a 151.54,151.54 0 0 0 -28.73,-11.9199996 v -7.14 a 22,22 0 0 0 -22,-22 h 110 l -41.11,-95.999999 h -106.89 v 95.999999 h -6 a 22,22 0 0 0 -22,22 v 7.14 a 152.15,152.15 0 0 0 -28.72,11.8599996 l -5.06,-5 a 22.57,22.57 0 0 0 -2.22,-1.93 V -154.03051 a 48.05,48.05 0 0 1 48,-48 h 133.45 a 47.91,47.91 0 0 1 44.13,29.14 l 56.09,130.859999 h 102.33005 v -40.2 a 128.16,128.16 0 0 1 29.5,-81.719999 16.28,16.28 0 0 1 24.7,-0.78 l 21.63,24.17 c 4.87,5.43 5.74,13.69 1.32,19.49 a 64.07,64.07 0 0 0 -13.15,38.839999 v 40.2 h 64 a 32,32 0 0 1 32,32 z"
         inkscape:connector-curvature="0"
         style="fill:#d40000" />
    </g>
  </g>
</svg>
